HIERARCHY
ROOT Hips
{
    OFFSET   0.000000   0.000000   0.000000
    CHANNELS 6 Xposition Yposition Zposition Zrotation Xrotation Yrotation
    JOINT Chest
    {
        OFFSET   0.000000   8.007230   0.000000
        CHANNELS 3 Zrotation Xrotation Yrotation
        JOINT Chest2
        {
            OFFSET   0.000000  22.077100   0.000000
            CHANNELS 3 Zrotation Xrotation Yrotation
            JOINT Neck
            {
                OFFSET   0.000000  23.255100   0.000000
                CHANNELS 3 Zrotation Xrotation Yrotation
                JOINT Head
                {
                    OFFSET   0.000000  14.370100   1.956600
                    CHANNELS 3 Zrotation Xrotation Yrotation
                    End Site
                    {
                        OFFSET   0.000000  19.566000   0.000000
                    }
                }
            }
            JOINT LeftCollar
            {
                OFFSET   3.911900  19.017000  -0.467063
                CHANNELS 3 Zrotation Xrotation Yrotation
                JOINT LeftShoulder
                {
                    OFFSET  10.383700   0.000000   0.000000
                    CHANNELS 3 Zrotation Xrotation Yrotation
                    JOINT LeftElbow
                    {
                        OFFSET  26.662100   0.001193   0.000980
                        CHANNELS 3 Zrotation Xrotation Yrotation
                        JOINT LeftWrist
                        {
                            OFFSET  28.869000  -0.000059  -0.000082
                            CHANNELS 3 Zrotation Xrotation Yrotation
                            JOINT LeftFinger0
                            {
                                OFFSET   2.044650  -2.323450   3.252850
                                CHANNELS 3 Zrotation Xrotation Yrotation
                                JOINT LeftFinger01
                                {
                                    OFFSET   3.088130   0.000000   0.000000
                                    CHANNELS 3 Zrotation Xrotation Yrotation
                                    JOINT LeftFinger02
                                    {
                                        OFFSET   2.639460   0.000000   0.000000
                                        CHANNELS 3 Zrotation Xrotation Yrotation
                                        End Site
                                        {
                                            OFFSET   2.582190   0.000000   0.000000
                                        }
                                    }
                                }
                            }
                            JOINT LeftFinger1
                            {
                                OFFSET   8.364480   0.000000   3.252850
                                CHANNELS 3 Zrotation Xrotation Yrotation
                                JOINT LeftFinger11
                                {
                                    OFFSET   4.646930   0.000000   0.000000
                                    CHANNELS 3 Zrotation Xrotation Yrotation
                                    JOINT LeftFinger12
                                    {
                                        OFFSET   2.323470   0.000000   0.000000
                                        CHANNELS 3 Zrotation Xrotation Yrotation
                                        End Site
                                        {
                                            OFFSET   2.273050   0.000000   0.000000
                                        }
                                    }
                                }
                            }
                            JOINT LeftFinger2
                            {
                                OFFSET   8.364490   0.000016   1.078090
                                CHANNELS 3 Zrotation Xrotation Yrotation
                                JOINT LeftFinger21
                                {
                                    OFFSET   5.111610   0.000000   0.000000
                                    CHANNELS 3 Zrotation Xrotation Yrotation
                                    JOINT LeftFinger22
                                    {
                                        OFFSET   2.788150   0.000016   0.000000
                                        CHANNELS 3 Zrotation Xrotation Yrotation
                                        End Site
                                        {
                                            OFFSET   2.727660   0.000000   0.000000
                                        }
                                    }
                                }
                            }
                            JOINT LeftFinger3
                            {
                                OFFSET   7.899780   0.000015  -1.078090
                                CHANNELS 3 Zrotation Xrotation Yrotation
                                JOINT LeftFinger31
                                {
                                    OFFSET   4.646930   0.000000   0.000000
                                    CHANNELS 3 Zrotation Xrotation Yrotation
                                    JOINT LeftFinger32
                                    {
                                        OFFSET   2.323470   0.000000   0.000000
                                        CHANNELS 3 Zrotation Xrotation Yrotation
                                        End Site
                                        {
                                            OFFSET   2.273050   0.000000   0.000000
                                        }
                                    }
                                }
                            }
                            JOINT LeftFinger4
                            {
                                OFFSET   7.435090   0.000000  -3.252850
                                CHANNELS 3 Zrotation Xrotation Yrotation
                                JOINT LeftFinger41
                                {
                                    OFFSET   3.717550   0.000000   0.000000
                                    CHANNELS 3 Zrotation Xrotation Yrotation
                                    JOINT LeftFinger42
                                    {
                                        OFFSET   1.858770   0.000000   0.000000
                                        CHANNELS 3 Zrotation Xrotation Yrotation
                                        End Site
                                        {
                                            OFFSET   1.818440   0.000000   0.000000
                                        }
                                    }
                                }
                            }
                        }
                    }
                }
            }
            JOINT RightCollar
            {
                OFFSET  -3.911910  19.017000  -0.467062
                CHANNELS 3 Zrotation Xrotation Yrotation
                JOINT RightShoulder
                {
                    OFFSET -10.383700   0.000014   0.000000
                    CHANNELS 3 Zrotation Xrotation Yrotation
                    JOINT RightElbow
                    {
                        OFFSET -26.662100   0.001225   0.001091
                        CHANNELS 3 Zrotation Xrotation Yrotation
                        JOINT RightWrist
                        {
                            OFFSET -28.869000  -0.000020  -0.000085
                            CHANNELS 3 Zrotation Xrotation Yrotation
                            JOINT RightFinger0
                            {
                                OFFSET  -2.044650  -2.323490   3.252850
                                CHANNELS 3 Zrotation Xrotation Yrotation
                                JOINT RightFinger01
                                {
                                    OFFSET  -3.088130   0.000000   0.000000
                                    CHANNELS 3 Zrotation Xrotation Yrotation
                                    JOINT RightFinger02
                                    {
                                        OFFSET  -2.639460   0.000000   0.000000
                                        CHANNELS 3 Zrotation Xrotation Yrotation
                                        End Site
                                        {
                                            OFFSET  -2.582190   0.000000   0.000000
                                        }
                                    }
                                }
                            }
                            JOINT RightFinger1
                            {
                                OFFSET  -8.364480   0.000000   3.252850
                                CHANNELS 3 Zrotation Xrotation Yrotation
                                JOINT RightFinger11
                                {
                                    OFFSET  -4.646930   0.000000   0.000000
                                    CHANNELS 3 Zrotation Xrotation Yrotation
                                    JOINT RightFinger12
                                    {
                                        OFFSET  -2.323470   0.000000   0.000000
                                        CHANNELS 3 Zrotation Xrotation Yrotation
                                        End Site
                                        {
                                            OFFSET  -2.273050   0.000000   0.000000
                                        }
                                    }
                                }
                            }
                            JOINT RightFinger2
                            {
                                OFFSET  -8.364480   0.000000   1.078090
                                CHANNELS 3 Zrotation Xrotation Yrotation
                                JOINT RightFinger21
                                {
                                    OFFSET  -5.111620   0.000000   0.000000
                                    CHANNELS 3 Zrotation Xrotation Yrotation
                                    JOINT RightFinger22
                                    {
                                        OFFSET  -2.788160   0.000000   0.000000
                                        CHANNELS 3 Zrotation Xrotation Yrotation
                                        End Site
                                        {
                                            OFFSET  -2.727660   0.000000   0.000000
                                        }
                                    }
                                }
                            }
                            JOINT RightFinger3
                            {
                                OFFSET  -7.899780   0.000000  -1.078090
                                CHANNELS 3 Zrotation Xrotation Yrotation
                                JOINT RightFinger31
                                {
                                    OFFSET  -4.646930   0.000000   0.000000
                                    CHANNELS 3 Zrotation Xrotation Yrotation
                                    JOINT RightFinger32
                                    {
                                        OFFSET  -2.323470   0.000000   0.000000
                                        CHANNELS 3 Zrotation Xrotation Yrotation
                                        End Site
                                        {
                                            OFFSET  -2.273050   0.000000   0.000000
                                        }
                                    }
                                }
                            }
                            JOINT RightFinger4
                            {
                                OFFSET  -7.435090   0.000000  -3.252850
                                CHANNELS 3 Zrotation Xrotation Yrotation
                                JOINT RightFinger41
                                {
                                    OFFSET  -3.717550   0.000000   0.000000
                                    CHANNELS 3 Zrotation Xrotation Yrotation
                                    JOINT RightFinger42
                                    {
                                        OFFSET  -1.858760   0.000000   0.000000
                                        CHANNELS 3 Zrotation Xrotation Yrotation
                                        End Site
                                        {
                                            OFFSET  -1.818440   0.000000   0.000000
                                        }
                                    }
                                }
                            }
                        }
                    }
                }
            }
        }
    }
    JOINT LeftHip
    {
        OFFSET   9.783030   0.000000   0.000000
        CHANNELS 3 Zrotation Xrotation Yrotation
        JOINT LeftKnee
        {
            OFFSET   0.000063 -41.789100   0.000608
            CHANNELS 3 Zrotation Xrotation Yrotation
            JOINT LeftAnkle
            {
                OFFSET   0.000048 -41.133200  -0.000184
                CHANNELS 3 Zrotation Xrotation Yrotation
                JOINT LeftToe
                {
                    OFFSET   0.000000  -6.358960  14.674500
                    CHANNELS 3 Zrotation Xrotation Yrotation
                    End Site
                    {
                        OFFSET   0.000000   0.000000   3.913200
                    }
                }
            }
        }
    }
    JOINT RightHip
    {
        OFFSET  -9.783030   0.000000   0.000000
        CHANNELS 3 Zrotation Xrotation Yrotation
        JOINT RightKnee
        {
            OFFSET   0.000071 -41.789100   0.001239
            CHANNELS 3 Zrotation Xrotation Yrotation
            JOINT RightAnkle
            {
                OFFSET   0.000037 -41.133200  -0.000166
                CHANNELS 3 Zrotation Xrotation Yrotation
                JOINT RightToe
                {
                    OFFSET   0.000000  -6.358960  14.674500
                    CHANNELS 3 Zrotation Xrotation Yrotation
                    End Site
                    {
                        OFFSET   0.000000   0.000000   3.913200
                    }
                }
            }
        }
    }
}
MOTION
Frames: 4
Frame Time:   0.016667
  0.462289  89.978400   0.573376  -0.671446  -2.352520  -4.723130  -0.998943   1.931560   0.769459  -2.025480   3.849210   1.573850   2.840720  -0.538636   0.023500   4.668090  -1.084090   3.546450   0.385493  -1.263080   5.010440 -74.803500  16.792300   2.294210  -3.160930  -5.748730 -13.870700  14.872100  -4.078330  10.174100  40.077000  33.513800 -69.985600 -27.959800  -0.002333   0.007930  -8.979910  -0.000072   0.007614 -37.290400   7.539870  -9.776340 -31.038700   0.002217  -0.000210 -21.727000   0.002374  -0.011827 -30.193900  -1.174090   2.021920 -45.321800   0.000673  -0.013435 -30.184300   0.000353   0.000151 -28.595900  -1.468860   2.675380 -37.808700   0.002680  -0.003005 -25.180600   0.002475   0.000791 -35.304900  -1.772310   2.486510 -53.015400   0.001823  -0.003552 -35.308300   0.001412   0.000160   9.846680   2.182400   5.819430  71.324700   7.758570  -4.499040   2.740480  -8.040360  11.450900 -13.945200 -23.348100  -5.137170 -33.808900  18.939500  50.207500  32.656400   0.000000   0.000103  11.328200   0.004778  -0.002853  31.984500   1.857130   2.970920  26.208500  -0.003505  -0.000591  18.345900  -0.004688  -0.005467  28.010700   0.172190   0.324696  32.066200  -0.006887   0.002529  21.356100  -0.005298   0.003909  27.754000  -5.114140  -9.634740  33.190600  -0.000303  -0.000336  22.105000  -0.002360  -0.007391  39.112200  -6.928700  -8.438720  59.435200  -0.005792  -0.003034  39.583800  -0.006206  -0.000491  -0.326767   1.936210   2.625950   0.587394   1.042630  12.482000  -4.725770  -2.617280   4.233140   0.000000   0.000000   0.000000   3.209050   0.840349  -5.337560  -1.969720   4.497020  -5.713630  -9.201540  -0.189773   0.556018   0.000000   0.000000   0.000000
  0.452459  89.978400   0.578601  -0.678349  -2.391880  -4.716470  -0.999176   1.965060   0.778324  -2.026780   3.916060   1.592450   2.847870  -0.545291   0.023538   4.680010  -1.097320   3.531530   0.375872  -1.308310   5.028150 -74.804000  16.881400   2.276320  -3.164020  -5.787880 -13.870500  14.882400  -4.084810  10.159700  40.069500  33.522300 -70.016600 -27.962500  -0.002334   0.007928  -8.981230  -0.000068   0.007625 -37.316300   7.545520  -9.774050 -31.060200   0.002211  -0.000206 -21.742000   0.002374  -0.011824 -30.196900  -1.174630   2.018480 -45.326400   0.000664  -0.013444 -30.187300   0.000347   0.000152 -28.595600  -1.469270   2.680880 -37.804000   0.002668  -0.002997 -25.177500   0.002466   0.000792 -35.301100  -1.772830   2.491810 -53.009600   0.001812  -0.003545 -35.304400   0.001406   0.000161   9.840220   2.110560   5.774330  71.344100   7.903550  -4.484990   2.728770  -8.054570  11.412300 -13.786200 -23.244400  -5.229440 -33.732300  18.849000  50.264000  32.743300  -0.000036   0.000107  11.371600   0.004771  -0.002810  31.969400   1.843420   2.950850  26.195600  -0.003507  -0.000545  18.336900  -0.004692  -0.005466  27.994600   0.139178   0.263435  31.955700  -0.006890   0.002519  21.282500  -0.005298   0.003909  27.753700  -5.114080  -9.634890  33.214400  -0.000300  -0.000313  22.120800  -0.002353  -0.007393  39.111900  -6.929010  -8.438930  59.434900  -0.005782  -0.003036  39.583600  -0.006209  -0.000495  -0.316423   1.975250   2.625980   0.580971   1.041980  12.476600  -4.735330  -2.612700   4.227780  -0.000000   0.000000  -0.000000   3.227510   0.890289  -5.374190  -1.982590   4.475070  -5.713430  -9.204030  -0.190454   0.588782   0.000000   0.000000   0.000000
  0.434207  89.978400   0.587182  -0.691036  -2.471310  -4.702040  -0.999530   2.027240   0.787204  -2.028760   4.040260   1.611170   2.862630  -0.558137   0.023633   4.704230  -1.123020   3.516630   0.362669  -1.379880   5.076680 -74.808400  17.059300   2.212240  -3.157850  -5.857170 -13.863900  14.911300  -4.091300  10.145400  40.069700  33.547700 -70.078500 -27.972500  -0.002335   0.007926  -8.986260  -0.000064   0.007637 -37.356800   7.551260  -9.767750 -31.093300   0.002206  -0.000193 -21.765300   0.002374  -0.011818 -30.199900  -1.175170   2.012330 -45.330900   0.000644  -0.013465 -30.190400   0.000332   0.000156 -28.595400  -1.469680   2.686390 -37.793500   0.002639  -0.002977 -25.170500   0.002443   0.000796 -35.292100  -1.773340   2.497110 -52.996300   0.001785  -0.003525 -35.295500   0.001391   0.000165   9.821070   2.007770   5.719770  71.394700   8.191960  -4.378740   2.683140  -8.082020  11.295000 -13.449900 -23.014200  -5.409340 -33.579500  18.692300  50.433100  32.912800  -0.000124   0.000136  11.456400   0.004763  -0.002719  31.930000   1.821990   2.921110  26.162500  -0.003515  -0.000461  18.313800  -0.004701  -0.005466  27.960100   0.075568   0.144652  31.729300  -0.006894   0.002495  21.131700  -0.005298   0.003908  27.753500  -5.113980  -9.635050  33.254700  -0.000298  -0.000265  22.147700  -0.002336  -0.007399  39.110200  -6.929320  -8.439130  59.433100  -0.005756  -0.003042  39.582400  -0.006212  -0.000503  -0.300002   2.049570   2.626080   0.574601   1.041350  12.468300  -4.750740  -2.605140   4.215180  -0.000000   0.000000  -0.000000   3.260520   0.985460  -5.442690  -2.004480   4.442540  -5.713160  -9.210930  -0.191609   0.644377   0.000000   0.000000  -0.000000
  0.415455  89.978300   0.593713  -0.702861  -2.563080  -4.682580  -0.999999   2.090680   0.783249  -2.030930   4.167170   1.604280   2.881600  -0.573106   0.023786   4.735360  -1.153330   3.550550   0.357525  -1.438950   5.157840 -74.834100  17.261300   2.093370  -3.130240  -5.922420 -13.828900  14.955700  -4.078960  10.164100  40.096000  33.615000 -70.136200 -27.994100  -0.002337   0.007940  -8.997050  -0.000071   0.007633 -37.377500   7.548810  -9.754040 -31.109500   0.002209  -0.000171 -21.776700   0.002374  -0.011811 -30.196200  -1.172140   2.008720 -45.325300   0.000612  -0.013496 -30.186700   0.000309   0.000162 -28.595300  -1.467900   2.685480 -37.775300   0.002595  -0.002946 -25.158400   0.002408   0.000804 -35.275700  -1.770850   2.496360 -52.971700   0.001745  -0.003495 -35.279100   0.001366   0.000172   9.791270   1.955980   5.708670  71.475800   8.500110  -4.130190   2.592090  -8.114020  11.093900 -13.057000 -22.731700  -5.607960 -33.401800  18.556800  50.718200  33.112700  -0.000266   0.000252  11.556300   0.004765  -0.002602  31.864700   1.804800   2.902450  26.108700  -0.003529  -0.000351  18.276100  -0.004713  -0.005475  27.915600   0.003315   0.008416  31.453900  -0.006888   0.002460  20.948300  -0.005299   0.003912  27.754200  -5.113840  -9.634660  33.271500  -0.000302  -0.000199  22.158900  -0.002312  -0.007408  39.100900  -6.927390  -8.439040  59.419500  -0.005718  -0.003049  39.573300  -0.006214  -0.000509  -0.289629   2.131680   2.626850   0.574412   1.045170  12.464900  -4.761510  -2.598970   4.196230  -0.000000   0.000000  -0.000000   3.291080   1.084380  -5.515600  -2.023090   4.426040  -5.714530  -9.222360  -0.192574   0.692837   0.000000   0.000000   0.000000
